# xmcd CD database file
#
# Track frame offsets:
#	150
#	43500
#	66512
#	101637
#	119712
#	147487
#	173037
#	197837
#	244350
#
# Disc length: 3592 seconds
#
# Revision: 0
# Processed by: cddbd v1.5.1PL0 Copyright (c) Steve Scherf et al.
# Submitted via: CDex 1.51
#
DISCID=8e0e0609
DTITLE=YOSUKE YAMASHITA - PACIFIC CROSSING
DYEAR=2003
DGENRE=Jazz
TTITLE0=Phase after Phase
TTITLE1=Bulles de Savon
TTITLE2=Heike Kids
TTITLE3=Four Sprits Flag
TTITLE4=Spirits of the Water and the Wind
TTITLE5=The Quintet
TTITLE6=The Requiem
TTITLE7=The Triple Explosion
TTITLE8=The Canary
EXTD=YEAR: 2003
EXTT0=
EXTT1=
EXTT2=
EXTT3=
EXTT4=
EXTT5=
EXTT6=
EXTT7=
EXTT8=
PLAYORDER=
